<svg xmlns="http://www.w3.org/2000/svg" data-name="Layer 1" viewBox="0 0 100 100" x="0px" y="0px" style="color:#FF7F00">
			<title style="" fill="currentColor">Artboard 5</title>
			<path d="M41.8,97c-2.8-0.5-4.7-3.2-4.2-6l0,0c0.5-2.8,3.2-4.7,6-4.2l0,0c2.8,0.5,4.7,3.2,4.2,6l0,0c-0.4,2.5-2.6,4.3-5.1,4.3l0,0   C42.4,97.1,42.1,97.1,41.8,97z M52.3,92.8c-0.5-2.8,1.4-5.5,4.2-6l0,0c2.8-0.5,5.5,1.4,6,4.2l0,0c0.5,2.8-1.4,5.5-4.2,6l0,0l0,0   l0,0c-0.3,0.1-0.6,0.1-0.9,0.1l0,0C55,97.1,52.8,95.3,52.3,92.8z M26.2,91.4C26.2,91.4,26.2,91.4,26.2,91.4L26.2,91.4   c-2.5-1.4-3.3-4.6-1.9-7l0,0c1.4-2.5,4.6-3.3,7-1.9l0,0c2.5,1.4,3.3,4.6,1.9,7l0,0c-0.9,1.6-2.7,2.6-4.5,2.6l0,0   C27.9,92.1,27,91.8,26.2,91.4z M66.8,89.5c-1.4-2.5-0.6-5.6,1.9-7l0,0c2.5-1.4,5.6-0.6,7,1.9l0,0c1.4,2.5,0.6,5.6-1.9,7l0,0l0,0   l0,0c-0.8,0.5-1.7,0.7-2.6,0.7l0,0C69.5,92,67.8,91.1,66.8,89.5z M13.5,80.7c-1.8-2.2-1.6-5.4,0.6-7.3l0,0c2.2-1.8,5.4-1.6,7.3,0.6   l0,0c1.8,2.2,1.6,5.4-0.6,7.3l0,0c-1,0.8-2.2,1.2-3.3,1.2l0,0C16,82.6,14.5,81.9,13.5,80.7z M79.3,81.3c-2.2-1.8-2.5-5.1-0.6-7.3   l0,0c1.8-2.2,5.1-2.5,7.3-0.6l0,0c2.2,1.8,2.5,5.1,0.6,7.3l0,0c0,0,0,0,0,0l0,0c-1,1.2-2.5,1.8-4,1.8l0,0   C81.4,82.5,80.3,82.1,79.3,81.3z M5.2,66.4c-1-2.7,0.4-5.6,3.1-6.6l0,0c2.7-1,5.6,0.4,6.6,3.1l0,0c1,2.7-0.4,5.6-3.1,6.6l0,0   c-0.6,0.2-1.2,0.3-1.8,0.3l0,0C7.9,69.8,5.9,68.5,5.2,66.4z M88.2,69.4c-2.7-1-4.1-3.9-3.1-6.6l0,0c1-2.7,3.9-4.1,6.6-3.1l0,0   c2.7,1,4.1,3.9,3.1,6.6l0,0c-0.8,2.1-2.7,3.4-4.8,3.4l0,0C89.4,69.7,88.8,69.6,88.2,69.4z M2.3,50.1c0-2.8,2.3-5.2,5.1-5.2l0,0   c2.8,0,5.2,2.3,5.2,5.1l0,0c0,2.9-2.3,5.2-5.1,5.2l0,0C4.6,55.3,2.3,53,2.3,50.1z M87.4,50L87.4,50C87.4,50,87.4,50,87.4,50   L87.4,50c0-0.1,0-0.1,0-0.2l0,0c0-2.9,2.3-5.2,5.1-5.2l0,0c2.9,0,5.2,2.3,5.2,5.1l0,0c0,0,0,0.1,0,0.1l0,0c0,0,0,0.1,0,0.1l0,0   c0,2.8-2.3,5.2-5.2,5.2l0,0C89.7,55.2,87.4,52.9,87.4,50z M12.6,50.1L12.6,50.1L12.6,50.1L12.6,50.1z M97.7,49.8   C97.7,49.8,97.7,49.8,97.7,49.8L97.7,49.8C97.7,49.8,97.7,49.8,97.7,49.8L97.7,49.8L97.7,49.8z M8.2,40.4c-2.7-1-4.1-3.9-3.1-6.6   l0,0l0,0l0,0c1-2.7,3.9-4.1,6.6-3.1l0,0c2.7,1,4.1,3.9,3.1,6.6l0,0c-0.8,2.1-2.7,3.4-4.8,3.4l0,0C9.4,40.7,8.8,40.6,8.2,40.4z    M85.1,37.1c-1-2.7,0.4-5.6,3-6.6l0,0c2.7-1,5.6,0.4,6.6,3.1l0,0c1,2.7-0.4,5.6-3,6.6l0,0c-0.6,0.2-1.2,0.3-1.8,0.3l0,0   C87.9,40.4,85.9,39.2,85.1,37.1z M14,26.7c-2.2-1.8-2.5-5.1-0.7-7.3l0,0l0,0l0,0c1.8-2.2,5.1-2.5,7.3-0.7l0,0   c2.2,1.8,2.5,5.1,0.7,7.3h0c-1,1.2-2.5,1.8-4,1.8l0,0C16.2,27.9,15,27.5,14,26.7z M78.6,25.9c-1.8-2.2-1.6-5.4,0.6-7.3l0,0   c2.2-1.8,5.4-1.6,7.3,0.6l0,0c1.8,2.2,1.6,5.4-0.6,7.3l0,0c-1,0.8-2.2,1.2-3.3,1.2l0,0C81.1,27.7,79.6,27.1,78.6,25.9z M24.2,15.8   c-1.4-2.5-0.6-5.6,1.9-7l0,0l0,0l0,0c2.5-1.4,5.6-0.6,7.1,1.9l0,0c1.4,2.5,0.6,5.6-1.9,7.1l0,0c-0.8,0.5-1.7,0.7-2.6,0.7l0,0   C26.8,18.4,25.1,17.4,24.2,15.8z M68.6,17.5c-2.5-1.4-3.3-4.6-1.9-7l0,0c1.4-2.5,4.6-3.3,7-1.9l0,0c2.5,1.4,3.3,4.6,1.9,7l0,0   c-1,1.7-2.7,2.6-4.5,2.6l0,0C70.3,18.2,69.4,18,68.6,17.5z M37.4,9c-0.5-2.8,1.4-5.5,4.2-6l0,0c2.8-0.5,5.5,1.4,6,4.2l0,0   c0.5,2.8-1.4,5.5-4.2,6l0,0c-0.3,0.1-0.6,0.1-0.9,0.1l0,0C40,13.3,37.9,11.5,37.4,9z M56.4,13.1c-2.8-0.5-4.7-3.2-4.2-6l0,0   c0.5-2.8,3.2-4.7,6-4.2l0,0l0,0l0,0c2.8,0.5,4.7,3.2,4.2,6l0,0c-0.4,2.5-2.6,4.3-5.1,4.3l0,0C57,13.2,56.7,13.2,56.4,13.1z" style="" fill="currentColor"></path><g style="" fill="currentColor"><path d="M45.4,75.2c0-2.5,2.1-4.6,4.6-4.6l0,0c2.5,0,4.6,2,4.6,4.6l0,0c0,2.5-2,4.6-4.6,4.6l0,0C47.5,79.7,45.4,77.7,45.4,75.2z    M35.2,75.8C35.2,75.8,35.2,75.8,35.2,75.8L35.2,75.8c-2.2-1.3-3-4.1-1.7-6.3l0,0c1.3-2.2,4.1-3,6.3-1.7l0,0   c2.2,1.3,2.9,4.1,1.7,6.3l0,0c-0.8,1.5-2.4,2.3-4,2.3l0,0C36.7,76.4,35.9,76.2,35.2,75.8z M58.6,74.1c-1.3-2.2-0.5-5,1.7-6.3l0,0   c2.2-1.3,5-0.5,6.3,1.7l0,0c1.3,2.2,0.5,5-1.7,6.3l0,0c-0.7,0.4-1.5,0.6-2.3,0.6l0,0C61,76.4,59.5,75.6,58.6,74.1z M24.3,64.9   L24.3,64.9L24.3,64.9c-1.3-2.2-0.5-5,1.7-6.3l0,0c2.2-1.3,5-0.5,6.3,1.7l0,0c1.3,2.2,0.5,5-1.7,6.3l0,0c-0.7,0.4-1.5,0.6-2.3,0.6   l0,0C26.6,67.2,25.1,66.4,24.3,64.9z M69.5,66.5c-2.2-1.3-2.9-4.1-1.7-6.3l0,0c1.3-2.2,4.1-2.9,6.3-1.7l0,0   c2.2,1.3,2.9,4.1,1.7,6.3l0,0c-0.8,1.5-2.4,2.3-4,2.3l0,0C71,67.2,70.2,67,69.5,66.5z M20.3,50.1c0-2.5,2-4.6,4.6-4.6l0,0   c2.5,0,4.6,2,4.6,4.6l0,0c0,2.5-2,4.6-4.6,4.6l0,0C22.3,54.6,20.3,52.6,20.3,50.1z M70.6,50C70.6,50,70.6,50,70.6,50L70.6,50   C70.6,49.9,70.6,49.9,70.6,50L70.6,50c0-2.6,2-4.7,4.6-4.7l0,0c2.5,0,4.6,2,4.6,4.6l0,0c0,0,0,0,0,0.1l0,0c0,0,0,0,0,0.1l0,0l0,0   l0,0c0,2.5-2.1,4.6-4.6,4.6l0,0C72.6,54.6,70.6,52.5,70.6,50z M25.9,41.4c-2.2-1.3-2.9-4.1-1.7-6.3l0,0l0,0l0,0   c1.3-2.2,4.1-2.9,6.3-1.7l0,0c2.2,1.3,3,4.1,1.7,6.3l0,0c-0.8,1.5-2.4,2.3-4,2.3l0,0C27.4,42.1,26.6,41.9,25.9,41.4z M67.8,39.6   c-1.3-2.2-0.5-5,1.6-6.3l0,0c2.2-1.3,5-0.5,6.3,1.6l0,0c0,0,0,0,0,0l0,0c1.3,2.2,0.5,5-1.6,6.3l0,0c-0.7,0.4-1.5,0.6-2.3,0.6l0,0   C70.2,41.9,68.6,41.1,67.8,39.6z M33.4,30.6c-1.3-2.2-0.5-5,1.7-6.3l0,0l0,0l0,0c2.2-1.3,5-0.5,6.3,1.7l0,0c1.3,2.2,0.5,5-1.7,6.3   l0,0c-0.7,0.4-1.5,0.6-2.3,0.6l0,0C35.8,32.8,34.2,32,33.4,30.6z M60.2,32.1c-2.2-1.3-2.9-4.1-1.7-6.3l0,0c1.3-2.2,4.1-2.9,6.3-1.7   l0,0c0,0,0,0,0,0l0,0c2.2,1.3,3,4.1,1.7,6.3l0,0c-0.8,1.5-2.4,2.3-4,2.3l0,0C61.7,32.8,60.9,32.5,60.2,32.1z M45.3,24.9   c0-2.5,2-4.6,4.6-4.6l0,0c2.5,0,4.6,2,4.6,4.6l0,0c0,2.5-2,4.6-4.6,4.6l0,0c0,0,0,0,0,0l0,0C47.4,29.4,45.3,27.4,45.3,24.9z" style="" fill="currentColor"></path></g><g style="" fill="currentColor"><circle cx="50" cy="50" r="8.7" style="" fill="currentColor"></circle>
			</g></svg>