<svg xmlns="http://www.w3.org/2000/svg" xmlns:xlink="http://www.w3.org/1999/xlink" version="1.1" x="0px" y="0px" viewBox="0 0 1024 1024" style="color:#FF7F00" xml:space="preserve" height="100%"><g style="" fill="currentColor"><path d="M883.2,944.2H140.8c-33.6,0-61-27.4-61-61V140.8c0-33.6,27.4-61,61-61h742.5c33.6,0,61,27.4,61,61v742.5   C944.2,916.9,916.9,944.2,883.2,944.2z M140.8,139.8c-0.5,0-1,0.5-1,1v742.5c0,0.5,0.5,1,1,1h742.5c0.5,0,1-0.5,1-1V140.8   c0-0.5-0.5-1-1-1H140.8z" style="" fill="currentColor"></path><path d="M519.6,602H314V220h205.6c50.6,0,98.3,19.8,134.3,55.8c36,36,55.8,83.7,55.8,134.3   c0,50.4-20.3,99.7-55.8,135.2C617.3,581.9,569.6,602,519.6,602z M374,542h145.6c34,0,66.6-13.9,91.9-39.1   c24.3-24.3,38.2-58.1,38.2-92.8c0-71.7-58.4-130.1-130.1-130.1H374V542z" style="" fill="currentColor"></path><rect x="314" y="250" width="60" height="524" style="" fill="currentColor"></rect></g></svg>